<svg width="439" height="260" viewBox="0 0 439 260" fill="none" xmlns="http://www.w3.org/2000/svg">
<path d="M-0.00292969 68.6732V260H438.077V68.6442C438.077 68.6442 409.809 59.8749 402.533 57.61V0.31941H283.856V20.7617C269.52 16.319 217.009 0 217.009 0L-0.00292969 68.6732Z" fill="#FFED00"/>
<path d="M395.381 62.4593V7.0271H291.008V30.0246L217.04 7.08517L7.14917 73.4935V73.6967V253.089V253.292H430.925V253.089V73.6967V73.4935L395.381 62.4593Z" fill="#E30613"/>
<path d="M49.4123 153.985V133.63L49.3503 152.823C49.3503 153.23 49.3503 153.607 49.4123 153.985Z" fill="white"/>
<path d="M57.5551 211.479L54.3351 187.813H49.4431L54.5518 221.555H62.1994L68.1131 187.813H60.2179L57.5551 211.479Z" fill="white"/>
<path d="M42.8794 211.537L40.4024 187.813H32.3833L38.328 221.555H47.5237L49.1647 207.181L46.2852 188.075L42.8794 211.537Z" fill="white"/>
<path d="M91.5823 187.813L83.8418 221.555H92.1706L93.1613 214.992H96.9387L96.1646 209.04H94.0592L96.5671 193.911L98.4249 206.078L98.5797 207.036L98.8583 209.04L99.942 216.415L100.871 221.555H109.231L101.552 187.813H91.5823Z" fill="white"/>
<path d="M98.8583 209.04L98.5796 207.036L98.8583 209.04Z" fill="white"/>
<path d="M149.295 209.272C149.141 206.92 147.5 205.41 145.208 204.829C148.707 203.29 149.605 200.735 149.605 197.134C149.605 190.427 146.199 187.813 139.419 187.813H136.539V193.882C139.914 193.882 141.4 194.318 141.4 198.006C141.4 200.067 140.843 202.187 138.428 202.187H136.539V208.256H138.335C140.254 208.401 140.936 209.737 141.152 211.798C141.4 213.86 141.183 216.647 141.338 219.638C141.369 220.306 141.586 220.945 141.803 221.584H150.843V221.119C150.472 220.8 150.224 220.393 150.038 219.958C149.574 217.809 149.512 212.001 149.295 209.301" fill="white"/>
<path d="M133.35 187.813H127.281V221.584H133.35V187.813Z" fill="white"/>
<path d="M176.077 187.813H169.39V221.584H176.077V187.813Z" fill="white"/>
<path d="M188.927 214.818H179.236V221.584H188.927V214.818Z" fill="white"/>
<path d="M188.029 200.764H179.236V207.53H188.029V200.764Z" fill="white"/>
<path d="M188.369 187.813H179.236V194.55H188.369V187.813Z" fill="white"/>
<path d="M222.459 200.764H218.031V207.53H222.459V221.555H230.725V187.813H222.459V200.764Z" fill="white"/>
<path d="M214.842 187.813H208.402V221.584H214.842V187.813Z" fill="white"/>
<path d="M263.08 187.058V193.476C264.35 194.26 264.443 196.06 264.443 197.628V211.508C264.443 212.989 264.35 215.021 263.08 215.892V222.339C270.294 221.874 272.74 217.954 272.74 210.811V197.076C272.74 191.065 269.366 187.523 263.08 187.058Z" fill="white"/>
<path d="M250.262 197.076V210.811C250.262 217.896 252.801 221.816 259.891 222.309V215.747C258.715 214.818 258.529 212.872 258.529 211.45V197.57C258.529 196.031 258.715 194.288 259.891 193.475V187.029C253.668 187.552 250.262 191.065 250.262 197.047" fill="white"/>
<path d="M300.544 213.279V187.784H292.247V212.234C292.247 218.593 295.714 221.816 301.721 222.31V215.921C300.792 215.399 300.544 214.382 300.544 213.279Z" fill="white"/>
<path d="M306.241 213.047C306.241 214.092 305.901 215.312 304.879 215.921V222.31C312.186 221.816 314.539 217.606 314.539 212.234V187.784H306.241V213.047Z" fill="white"/>
<path d="M345.377 193.534C346.647 194.405 346.585 196.408 346.678 197.947H354.325C354.666 192.082 351.57 187.726 345.408 187.087V193.563L345.377 193.534Z" fill="white"/>
<path d="M340.578 212.64V210.259H332.9V213.86C332.9 218.012 335.686 221.816 342.188 222.31V215.98C340.95 215.399 340.578 214.092 340.578 212.669" fill="white"/>
<path d="M343.55 199.457C341.909 198.383 340.826 197.338 341.042 195.305C341.135 194.434 341.538 193.766 342.188 193.388V187.058C336.708 187.581 333.364 190.775 333.364 196.583C333.364 199.544 334.262 201.635 335.779 203.319C337.327 205.032 339.494 206.339 342.033 207.733C344.2 208.981 346.646 210.085 346.646 212.901C346.646 214.092 346.244 215.254 345.346 215.834V222.252C351.167 221.7 354.325 218.186 354.325 212.234C354.325 208.139 353.21 205.874 351.26 204.19C349.34 202.477 346.646 201.316 343.55 199.428" fill="white"/>
<path d="M392.223 200.764H383.615V207.53H392.223V200.764Z" fill="white"/>
<path d="M380.457 187.813H373.583V221.584H380.457V187.813Z" fill="white"/>
<path d="M392.563 187.813H383.615V194.55H392.563V187.813Z" fill="white"/>
<path d="M393.121 214.818H383.615V221.584H393.121V214.818Z" fill="white"/>
<path d="M62.0139 148.961C62.0139 153.288 61.5185 159.153 55.6048 159.153C55.2642 159.153 54.9236 159.153 54.614 159.124V171.901C72.2004 171.814 79.4145 163.335 79.4145 151.226V142.544H62.0139V148.961Z" fill="white"/>
<path d="M56.1931 110.458C59.4441 110.458 61.7353 113.565 61.7353 119.605V124.135H79.1358V118.182C79.1358 103.75 70.2498 97.7106 55.419 97.7106H54.614V110.516C55.1094 110.458 55.6358 110.429 56.1931 110.458Z" fill="white"/>
<path d="M32.0735 120.272V149.339C32.0735 162.202 37.0274 170.042 49.4122 171.61V153.985C49.3812 153.607 49.3502 153.23 49.3502 152.823L49.4122 133.63V98.0879C37.6157 99.7721 32.0735 106.944 32.0735 120.272Z" fill="white"/>
<path d="M137.654 170.159V99.3365H120.253V126.545H110.438V140.686H120.253V170.159H137.654Z" fill="white"/>
<path d="M105.298 99.3365H90.8391V170.129H105.298V99.3365Z" fill="white"/>
<path d="M190.258 155.988H169.39V170.159H190.258V155.988Z" fill="white"/>
<path d="M164.25 99.3365H149.264V170.129H164.25V99.3365Z" fill="white"/>
<path d="M189.081 99.3365H169.421V113.507H189.081V99.3365Z" fill="white"/>
<path d="M188.4 126.544H169.421V140.715H188.4V126.544Z" fill="white"/>
<path d="M238.156 130.029L244.132 160.489L254.256 114.639H254.442L252.677 170.159H269.273V99.3365H244.968L238.156 130.029Z" fill="white"/>
<path d="M226.484 99.3365H201.993V170.159H218.495L216.916 114.639H217.102L229.053 170.159H240.788L231.159 121.056L226.484 99.3365Z" fill="white"/>
<path d="M299.461 99.3365H282.06V170.129H299.461V99.3365Z" fill="white"/>
<path d="M337.946 120.592H353.954C354.697 107.874 347.73 98.5236 333.921 97.7106V110.719C337.915 112.026 337.76 116.904 337.946 120.592Z" fill="white"/>
<path d="M325.19 151.459V146.464H309.09V154.014C309.09 162.754 314.973 170.768 328.782 171.756V158.515C325.995 157.324 325.19 154.537 325.19 151.459Z" fill="white"/>
<path d="M333.921 158.834V171.785C346.956 171.03 354.046 163.596 354.046 150.704C354.046 142.109 351.693 137.405 347.637 133.804C343.581 130.203 337.946 127.764 331.444 123.786C327.977 121.521 325.716 119.343 326.212 115.104C326.459 113.187 327.326 111.736 328.782 110.981V97.7687C317.202 98.785 310.081 105.493 310.081 117.746C310.081 123.989 311.969 128.316 315.127 131.917C318.378 135.517 322.93 138.247 328.286 141.179C332.838 143.822 337.977 146.087 337.977 152.039C337.977 155.059 336.739 157.992 333.952 158.863" fill="white"/>
<path d="M362.096 99.3365V113.507H375.751V170.159H393.151V113.507H407.177V99.3365H362.096Z" fill="white"/>
<path d="M92.9138 76.1358H93.6259C94.0284 77.878 94.6477 79.1266 95.5146 79.9106C96.3816 80.6946 97.4033 81.1011 98.5179 81.1011C99.6326 81.1011 100.407 80.8398 100.871 80.2881C101.335 79.7364 101.552 79.1847 101.552 78.5749C101.552 77.878 101.304 77.3263 100.84 76.8617C100.53 76.5713 99.8802 76.1938 98.8895 75.7292L97.3104 74.9743C95.7623 74.2483 94.6477 73.4934 93.9975 72.7674C93.3473 72.0415 93.0377 71.1413 93.0377 70.067C93.0377 68.9345 93.4711 67.8892 94.3071 66.9019C95.1431 65.9146 96.4435 65.421 98.2083 65.421C99.1062 65.421 99.9731 65.5371 100.809 65.7985C101.645 66.0598 102.11 66.176 102.233 66.176C102.512 66.176 102.698 66.0888 102.791 65.9437C102.884 65.7985 102.976 65.5952 103.038 65.3629H103.781V70.4154H103.1C102.791 69.2539 102.202 68.2376 101.397 67.3955C100.592 66.5534 99.6016 66.1179 98.425 66.1179C97.62 66.1179 96.9698 66.3211 96.4744 66.7567C96.01 67.1923 95.7623 67.7149 95.7623 68.3247C95.7623 69.0507 95.979 69.6024 96.4435 69.9798C96.8769 70.3573 97.8677 70.909 99.3849 71.6059L101.212 72.477C102.017 72.8545 102.667 73.2901 103.162 73.7547C104.06 74.6258 104.525 75.7002 104.525 76.9488C104.525 78.1103 104.029 79.2137 103.069 80.259C102.11 81.3044 100.561 81.8271 98.425 81.8271C97.9296 81.8271 97.4343 81.769 96.9389 81.6819C96.4435 81.5948 95.9481 81.4496 95.4527 81.2754L94.9883 81.1011C94.9883 81.1011 94.7715 81.0431 94.6786 81.014C94.5858 81.014 94.4929 81.014 94.431 81.014C94.1833 81.014 93.9975 81.0721 93.9046 81.2173C93.8117 81.3625 93.7188 81.5657 93.6569 81.8271H92.9448V76.0777L92.9138 76.1358Z" fill="white"/>
<path d="M106.165 71.8962V71.2574C106.382 71.0832 106.661 70.8509 106.97 70.5895C107.404 70.212 107.806 69.8345 108.178 69.4571C108.921 68.6731 109.602 67.86 110.221 66.9889H110.841V70.9089H113.194V71.9252H110.841V78.8942C110.841 79.2136 110.902 79.504 110.995 79.7072C111.15 80.0557 111.429 80.2299 111.8 80.2299C112.11 80.2299 112.389 80.1138 112.605 79.9105C112.822 79.7072 113.039 79.3878 113.256 79.0103L113.844 79.2717C113.565 79.9105 113.225 80.4332 112.822 80.8106C112.11 81.5075 111.243 81.856 110.221 81.856C109.633 81.856 109.138 81.7398 108.704 81.5366C107.868 81.1301 107.466 80.4332 107.435 79.3878V71.8672H106.165V71.8962Z" fill="white"/>
<path d="M116.104 72.2157C117.157 71.1413 118.488 70.5896 120.098 70.5896C121.708 70.5896 123.071 71.1413 124.092 72.2447C125.145 73.3481 125.64 74.6839 125.64 76.2519C125.64 77.8199 125.114 79.1266 124.092 80.259C123.071 81.3624 121.708 81.9432 120.067 81.9432C118.426 81.9432 117.126 81.3915 116.073 80.3171C115.02 79.2427 114.494 77.878 114.494 76.2809C114.494 74.6839 115.02 73.3191 116.073 72.2447M118.364 79.7073C118.643 80.7236 119.2 81.2173 120.036 81.2173C120.872 81.2173 121.368 80.8398 121.615 80.0558C121.863 79.2718 121.987 78.0232 121.987 76.2809C121.987 74.5387 121.863 73.2901 121.584 72.5351C121.337 71.7511 120.81 71.3736 120.036 71.3736C119.2 71.3736 118.643 71.8672 118.364 72.8835C118.179 73.5514 118.086 74.6839 118.086 76.2809C118.086 77.878 118.179 79.0395 118.364 79.6783" fill="white"/>
<path d="M126.755 85.7761C127.282 85.718 127.653 85.6019 127.839 85.4277C128.025 85.2534 128.118 84.905 128.118 84.4114V72.7674C128.118 72.2738 128.025 71.9544 127.839 71.7801C127.653 71.6059 127.313 71.4898 126.786 71.4317V70.88H131.492V72.419C131.833 71.8963 132.143 71.4898 132.483 71.2575C133.072 70.8219 133.815 70.5896 134.712 70.5896C136.013 70.5896 137.066 71.0542 137.933 71.9544C138.799 72.8545 139.202 74.2193 139.202 76.0486C139.202 77.7328 138.738 79.1266 137.809 80.23C136.88 81.3334 135.765 81.8851 134.465 81.8851C133.784 81.8851 133.164 81.7109 132.545 81.3334C132.236 81.1301 131.895 80.8688 131.554 80.4913V82.4368C131.554 83.4822 131.554 84.0629 131.554 84.1791C131.616 84.7888 131.771 85.2244 132.05 85.4277C132.328 85.66 132.793 85.7761 133.443 85.8342V86.2988H126.693V85.7471L126.755 85.7761ZM135.332 78.9233C135.487 78.3135 135.579 77.4424 135.579 76.2809C135.579 74.9452 135.456 73.8999 135.208 73.1158C134.96 72.3318 134.434 71.9253 133.629 71.9253C133.102 71.9253 132.638 72.1576 132.205 72.5932C131.771 73.0287 131.585 73.3481 131.585 73.5514V79.1846C131.585 79.4169 131.771 79.7073 132.174 80.0558C132.576 80.4042 133.01 80.6075 133.505 80.6075C134.403 80.6075 134.991 80.0558 135.301 78.9523" fill="white"/>
<path d="M146.602 80.9849C147.407 80.9268 147.964 80.7816 148.243 80.4913C148.521 80.2299 148.645 79.6782 148.645 78.8652V68.615C148.645 67.7439 148.49 67.1922 148.212 66.9599C147.933 66.7276 147.376 66.5824 146.602 66.4953V65.9146H154.528C156.633 65.9146 158.243 66.234 159.327 66.8728C160.411 67.5116 160.968 68.615 160.968 70.183C160.968 70.938 160.751 71.6639 160.318 72.3318C159.884 72.9997 159.172 73.5514 158.181 73.9579C157.438 74.2483 156.695 74.4225 155.952 74.4806C155.209 74.5386 154.094 74.5677 152.639 74.5677V78.8942C152.639 79.7363 152.794 80.3171 153.104 80.5784C153.413 80.8397 153.97 80.9849 154.806 81.0139V81.5947H146.602V81.0139V80.9849ZM155.581 73.261C156.355 72.7964 156.757 71.7801 156.757 70.2411C156.757 69.1958 156.571 68.3246 156.2 67.6858C155.828 67.047 155.085 66.6986 154.032 66.6986C153.537 66.6986 153.196 66.7566 152.98 66.8728C152.763 66.9889 152.67 67.1922 152.67 67.5116V73.7546C154.125 73.7546 155.116 73.5804 155.611 73.29" fill="white"/>
<path d="M163.476 76.9199C164.529 76.3101 166.232 75.7003 168.492 75.0615V73.3773C168.492 72.6804 168.337 72.1868 168.027 71.8674C167.718 71.548 167.16 71.3737 166.386 71.3737C165.953 71.3737 165.581 71.4609 165.303 71.606C165.024 71.7512 164.869 71.9545 164.869 72.1868C164.869 72.2739 164.869 72.361 164.931 72.4191C164.962 72.4772 165.024 72.5352 165.086 72.6223L165.241 72.7675C165.241 72.7675 165.457 73.0289 165.519 73.2031C165.581 73.3483 165.612 73.5225 165.612 73.6967C165.612 74.1323 165.457 74.4807 165.148 74.713C164.838 74.9453 164.467 75.0615 164.064 75.0615C163.6 75.0615 163.197 74.9163 162.857 74.655C162.516 74.3936 162.361 74.0161 162.361 73.5225C162.361 72.6223 162.795 71.9255 163.693 71.4028C164.591 70.8801 165.674 70.6188 166.975 70.6188C168.368 70.6188 169.544 70.8801 170.473 71.3737C171.402 71.8964 171.867 72.8256 171.867 74.2194V79.8526C171.867 80.0269 171.898 80.172 171.99 80.2882C172.083 80.4043 172.176 80.4624 172.3 80.4624C172.393 80.4624 172.486 80.4624 172.548 80.4043C172.61 80.3753 172.734 80.2882 172.888 80.114L173.26 80.6076C172.764 81.1303 172.238 81.5078 171.65 81.711C171.278 81.8562 170.876 81.9143 170.473 81.9143C169.73 81.9143 169.204 81.711 168.863 81.3045C168.678 81.0722 168.523 80.7528 168.43 80.2882C167.749 80.927 166.975 81.3916 166.108 81.653C165.581 81.8272 165.086 81.9143 164.56 81.9143C163.878 81.9143 163.259 81.711 162.671 81.3045C162.083 80.898 161.804 80.2592 161.804 79.4171C161.804 78.3717 162.33 77.5587 163.414 76.9199M167.718 79.9107C167.903 79.7655 168.151 79.5623 168.399 79.2719V75.8745C167.749 76.0197 167.16 76.252 166.665 76.6005C165.829 77.1522 165.396 77.8491 165.396 78.7202C165.396 79.2138 165.519 79.6203 165.767 79.8817C166.015 80.143 166.293 80.2882 166.603 80.2882C167.006 80.2882 167.377 80.1721 167.718 79.9398" fill="white"/>
<path d="M174.096 83.395C174.436 83.1337 174.839 83.0176 175.334 83.0176C175.737 83.0176 176.108 83.1337 176.356 83.337C176.635 83.5693 176.758 83.8306 176.758 84.121L176.696 84.6437C176.696 84.6437 176.727 84.8179 176.82 84.905C176.913 84.9921 177.006 85.0211 177.13 85.0211C177.563 85.0211 177.966 84.7017 178.337 84.0629C178.554 83.6854 178.895 82.9014 179.328 81.769L176.418 74.9742C176.201 74.4806 176.015 74.045 175.799 73.6095C175.613 73.1739 175.396 72.7674 175.179 72.3609C174.963 71.9544 174.777 71.693 174.653 71.5769C174.529 71.4607 174.281 71.4026 173.972 71.3736V70.8219H180.133V71.3736C179.762 71.3736 179.421 71.4317 179.173 71.4898C178.926 71.5769 178.802 71.7221 178.802 71.9834C178.802 72.0415 178.802 72.0995 178.833 72.1867C178.833 72.2738 178.926 72.448 179.019 72.6803L180.969 77.2391H181.093L182.703 73.1739C182.796 72.9416 182.858 72.7384 182.889 72.5641C182.951 72.3899 182.982 72.2447 182.982 72.1286C182.982 71.8092 182.858 71.6059 182.641 71.5188C182.424 71.4317 182.084 71.3736 181.619 71.3736V70.8219H185.366V71.3736C185.056 71.3736 184.778 71.4898 184.592 71.6059C184.375 71.7511 184.189 72.0705 183.973 72.6222L180.288 81.8851C179.576 83.5983 178.957 84.7598 178.43 85.3696C177.904 85.9794 177.099 86.2988 176.015 86.2988C175.21 86.2988 174.591 86.1246 174.189 85.7471C173.786 85.3696 173.569 84.9631 173.569 84.5275C173.569 84.0048 173.755 83.5983 174.096 83.366" fill="white"/>
<path d="M186.326 81.014C186.759 80.9559 187.069 80.8398 187.224 80.6946C187.472 80.4913 187.595 80.1138 187.595 79.5912V72.7674C187.595 72.3028 187.502 71.9834 187.348 71.8092C187.193 71.6349 186.852 71.5188 186.357 71.4317V70.88H191.094V79.7073C191.094 80.201 191.187 80.5494 191.342 80.6946C191.497 80.8398 191.806 80.9559 192.24 81.043V81.5947H186.357V81.043L186.326 81.014ZM187.967 66.0598C188.338 65.7113 188.803 65.5371 189.329 65.5371C189.856 65.5371 190.289 65.7113 190.661 66.0598C191.032 66.4082 191.218 66.8438 191.218 67.3374C191.218 67.8311 191.032 68.2666 190.661 68.6151C190.289 68.9635 189.856 69.1377 189.329 69.1377C188.803 69.1377 188.338 68.9635 187.967 68.6151C187.595 68.2666 187.41 67.8311 187.41 67.3374C187.41 66.8438 187.595 66.4082 187.967 66.0598Z" fill="white"/>
<path d="M193.168 81.014C193.633 80.9559 193.943 80.8398 194.159 80.6655C194.376 80.4913 194.469 80.1429 194.469 79.6202V72.7964C194.469 72.3318 194.376 71.9834 194.221 71.8092C194.035 71.6349 193.695 71.5188 193.168 71.4317V70.88H197.844V72.5351C198.246 71.9834 198.742 71.5188 199.33 71.1413C199.949 70.7638 200.599 70.5896 201.342 70.5896C202.395 70.5896 203.231 70.8509 203.819 71.3736C204.408 71.8963 204.686 72.7964 204.686 74.0741V79.6783C204.686 80.201 204.779 80.5494 204.965 80.6946C205.151 80.8398 205.46 80.9559 205.925 81.014V81.5657H200.135V81.014C200.568 80.9269 200.878 80.8107 201.033 80.6655C201.188 80.5204 201.28 80.201 201.28 79.6783V74.045C201.28 73.5224 201.219 73.1158 201.126 72.8545C200.94 72.3899 200.537 72.1286 199.98 72.1286C199.547 72.1286 199.175 72.2738 198.804 72.5641C198.463 72.8545 198.184 73.1449 197.968 73.4353V79.6492C197.968 80.1429 198.06 80.4913 198.215 80.6365C198.37 80.7817 198.68 80.8978 199.113 80.985V81.5367H193.168V80.985V81.014Z" fill="white"/>
<path d="M207.473 83.221C207.782 82.8725 208.278 82.6402 208.99 82.5241V82.3789C208.494 82.2047 208.154 82.0305 207.937 81.8562C207.566 81.5368 207.349 81.1013 207.349 80.5495C207.349 79.9107 207.658 79.359 208.247 78.8944C208.866 78.4298 209.454 78.1104 210.012 77.9362V77.791C209.176 77.4716 208.494 77.007 207.999 76.4262C207.473 75.8455 207.225 75.1196 207.225 74.2775C207.225 73.2321 207.689 72.361 208.587 71.6641C209.485 70.9672 210.693 70.6478 212.241 70.6478C212.829 70.6478 213.355 70.7059 213.82 70.822C214.315 70.9382 214.687 71.0253 214.935 71.1415H218.186V72.3901H216.173C216.483 72.6804 216.73 73.0289 216.916 73.4354C217.102 73.8419 217.164 74.2485 217.164 74.713C217.164 76.1649 216.421 77.1522 214.965 77.7039C214.191 77.9943 213.232 78.1395 212.086 78.1395C211.838 78.1395 211.684 78.1395 211.591 78.1395C211.529 78.1395 211.405 78.1395 211.25 78.1395C211.002 78.1685 210.755 78.2846 210.476 78.4879C210.197 78.6912 210.073 78.9525 210.073 79.2429C210.073 79.4752 210.135 79.6494 210.29 79.7946C210.414 79.9107 210.6 79.9978 210.848 80.0269C210.971 80.0269 211.219 80.0269 211.622 80.0559C212.024 80.0559 212.334 80.0559 212.55 80.0559H214.16C215.058 80.085 215.832 80.2301 216.452 80.4624C217.628 80.927 218.216 81.7401 218.216 82.9016C218.216 84.4115 217.319 85.4569 215.554 86.0086C214.625 86.2989 213.448 86.4441 212.024 86.4441C210.879 86.4441 209.857 86.328 209.052 86.1247C207.658 85.7763 206.977 85.1665 206.977 84.3244C206.977 84.005 207.132 83.6565 207.411 83.3081M209.95 85.3117C210.476 85.573 211.281 85.7182 212.303 85.7182C213.232 85.7182 213.975 85.6601 214.563 85.5149C215.678 85.2536 216.235 84.789 216.235 84.0921C216.235 83.6856 216.08 83.3952 215.77 83.1919C215.461 82.9887 214.873 82.9016 214.037 82.9016H209.981C209.733 83.1048 209.547 83.2791 209.423 83.3952C209.207 83.6565 209.114 83.9179 209.114 84.1792C209.114 84.6438 209.392 85.0213 209.919 85.3117M210.786 76.4262C211.033 77.0941 211.498 77.4426 212.179 77.4426C212.798 77.4426 213.232 77.1812 213.448 76.6876C213.696 76.1649 213.789 75.439 213.789 74.4517C213.789 73.4064 213.665 72.6514 213.417 72.1868C213.17 71.7222 212.767 71.4609 212.148 71.4609C211.498 71.4609 211.064 71.7222 210.848 72.2158C210.631 72.7385 210.538 73.4644 210.538 74.4517C210.538 75.3519 210.631 75.9907 210.786 76.4262Z" fill="white"/>
<path d="M225.183 65.8857H240.045V70.5607H239.364C239.116 68.8766 238.466 67.7441 237.351 67.1634C236.732 66.844 235.803 66.6697 234.595 66.6407V78.8654C234.595 79.7075 234.75 80.2882 235.06 80.5786C235.37 80.869 236.051 80.9851 237.041 80.9851V81.5659H228.248V80.9851C229.208 80.9851 229.858 80.8399 230.168 80.5496C230.478 80.2592 230.632 79.7075 230.632 78.8654V66.6407C229.425 66.6697 228.496 66.844 227.877 67.1634C226.7 67.7732 226.019 68.9056 225.864 70.5607H225.152V65.8857H225.183Z" fill="white"/>
<path d="M240.85 72.2157C241.902 71.1413 243.234 70.5896 244.844 70.5896C246.454 70.5896 247.816 71.1413 248.838 72.2447C249.891 73.3481 250.386 74.6839 250.386 76.2519C250.386 77.8199 249.891 79.1266 248.838 80.259C247.816 81.3624 246.485 81.9432 244.813 81.9432C243.141 81.9432 241.872 81.3915 240.819 80.3171C239.766 79.2427 239.24 77.878 239.24 76.2809C239.24 74.6839 239.766 73.3191 240.819 72.2447M243.141 79.7073C243.42 80.7236 243.977 81.2173 244.813 81.2173C245.649 81.2173 246.144 80.8398 246.392 80.0558C246.64 79.2718 246.763 78.0232 246.763 76.2809C246.763 74.5387 246.64 73.2901 246.361 72.5351C246.113 71.7511 245.587 71.3736 244.813 71.3736C243.977 71.3736 243.42 71.8672 243.141 72.8835C242.955 73.5514 242.862 74.6839 242.862 76.2809C242.862 77.878 242.955 79.0395 243.141 79.6783" fill="white"/>
<path d="M253.173 72.2157C254.225 71.1413 255.557 70.5896 257.167 70.5896C258.777 70.5896 260.139 71.1413 261.161 72.2447C262.213 73.3481 262.709 74.6839 262.709 76.2519C262.709 77.8199 262.182 79.1266 261.161 80.259C260.139 81.3624 258.808 81.9432 257.136 81.9432C255.464 81.9432 254.194 81.3915 253.142 80.3171C252.089 79.2427 251.562 77.878 251.562 76.2809C251.562 74.6839 252.089 73.3191 253.142 72.2447M255.433 79.7073C255.711 80.7236 256.269 81.2173 257.105 81.2173C257.91 81.2173 258.436 80.8398 258.684 80.0558C258.931 79.2718 259.055 78.0232 259.055 76.2809C259.055 74.5387 258.931 73.2901 258.653 72.5351C258.374 71.7511 257.879 71.3736 257.105 71.3736C256.269 71.3736 255.711 71.8672 255.433 72.8835C255.247 73.5514 255.154 74.6839 255.154 76.2809C255.154 77.878 255.247 79.0395 255.433 79.6783" fill="white"/>
<path d="M269.892 80.9849C270.821 80.9849 271.44 80.8107 271.719 80.5203C271.997 80.2009 272.152 79.7653 272.152 79.1556V68.1214C272.152 67.4826 271.997 67.076 271.657 66.8728C271.347 66.6695 270.759 66.5534 269.954 66.4953V65.9146H276.177L281.038 76.6584H281.255L286.085 65.9146H292.308V66.4953C291.472 66.5534 290.915 66.6986 290.605 66.9309C290.296 67.1632 290.141 67.7149 290.141 68.615V78.8652C290.141 79.7073 290.296 80.288 290.605 80.5494C290.915 80.8107 291.472 80.9559 292.308 80.9849V81.5657H284.134V80.9849C284.877 80.9849 285.404 80.8397 285.775 80.6365C286.147 80.4332 286.333 79.9686 286.333 79.2717V67.9181H286.147L280.109 81.5657H279.459L273.36 68.2085H273.236V78.691C273.236 79.475 273.391 80.0267 273.7 80.3751C274.01 80.7236 274.691 80.9268 275.713 80.9559V81.5366H269.954V80.9559L269.892 80.9849Z" fill="white"/>
<path d="M297.882 70.88V78.7491C297.882 79.2137 297.944 79.5622 298.067 79.7945C298.284 80.1719 298.687 80.3752 299.306 80.3752C299.708 80.3752 300.08 80.2591 300.451 80.0268C300.668 79.9106 300.947 79.6783 301.256 79.3879V72.7965C301.256 72.3028 301.164 71.9544 300.947 71.7802C300.73 71.5769 300.328 71.4898 299.708 71.4608V70.909H304.631V79.2718C304.631 79.7654 304.724 80.0848 304.91 80.2591C305.096 80.4333 305.467 80.5494 306.056 80.6075V81.1302C304.538 81.2754 303.579 81.3625 303.176 81.4205C302.774 81.4786 302.154 81.6528 301.256 81.9142V80.3752C300.668 80.8398 300.173 81.1882 299.801 81.3915C299.12 81.74 298.439 81.9142 297.696 81.9142C296.891 81.9142 296.148 81.6819 295.467 81.1882C294.785 80.7236 294.445 79.8525 294.445 78.662V72.7965C294.445 72.3028 294.352 71.9834 294.197 71.8382C294.042 71.693 293.702 71.5479 293.237 71.4608V70.909H297.882V70.88Z" fill="white"/>
<path d="M315.592 71.2866C316.366 71.7512 316.737 72.361 316.737 73.116C316.737 73.5225 316.583 73.871 316.273 74.1613C315.963 74.4517 315.592 74.5969 315.127 74.5969C314.818 74.5969 314.539 74.5388 314.322 74.3936C313.889 74.1613 313.672 73.7258 313.672 73.0869C313.672 73.0289 313.672 72.9127 313.672 72.7966C313.672 72.6514 313.672 72.5352 313.672 72.361C313.672 71.9545 313.579 71.6641 313.363 71.5189C313.146 71.3737 312.929 71.2866 312.651 71.2866C311.876 71.2866 311.35 71.6932 311.01 72.4772C310.7 73.2612 310.514 74.1613 310.514 75.1776C310.514 76.6295 310.824 77.8491 311.443 78.8363C312.062 79.8236 312.867 80.3172 313.92 80.3172C314.57 80.3172 315.127 80.172 315.592 79.9107C315.871 79.7655 316.211 79.4752 316.614 79.0396L317.078 79.4461C316.273 80.4915 315.344 81.2174 314.261 81.6239C313.703 81.8272 313.084 81.9433 312.434 81.9433C310.855 81.9433 309.554 81.4207 308.564 80.3463C307.573 79.2719 307.046 77.9942 307.046 76.4553C307.046 74.8292 307.573 73.4644 308.656 72.332C309.709 71.1995 311.133 70.6188 312.898 70.6188C313.92 70.6188 314.849 70.8511 315.592 71.3447" fill="white"/>
<path d="M317.883 81.0142C318.347 80.9561 318.657 80.8399 318.874 80.6657C319.09 80.4915 319.183 80.1431 319.183 79.6204V67.8022C319.183 67.3376 319.09 67.0182 318.905 66.8149C318.719 66.6407 318.378 66.4955 317.852 66.4374V65.8857H322.62V72.4191C323.116 71.8384 323.673 71.4028 324.199 71.0834C324.757 70.764 325.376 70.6188 326.088 70.6188C327.048 70.6188 327.822 70.8802 328.441 71.4028C329.06 71.9255 329.37 72.7966 329.37 74.0452V79.6204C329.37 80.1431 329.463 80.4915 329.648 80.6367C329.834 80.8109 330.144 80.9271 330.608 81.0142V81.5659H324.818V81.0142C325.252 80.9271 325.562 80.8109 325.716 80.6657C325.871 80.5205 325.964 80.2011 325.964 79.6785V74.0452C325.964 73.5225 325.902 73.116 325.778 72.8547C325.592 72.3901 325.19 72.1288 324.633 72.1288C324.199 72.1288 323.766 72.303 323.301 72.6805C322.837 73.058 322.62 73.2903 322.62 73.4354V79.6494C322.62 80.1431 322.713 80.4915 322.868 80.6367C323.023 80.7819 323.332 80.898 323.766 80.9851V81.5368H317.821V80.9851L317.883 81.0142Z" fill="white"/>
<path d="M333.797 66.0598C334.2 65.7113 334.695 65.5081 335.253 65.5081C335.81 65.5081 336.274 65.6823 336.708 66.0307C337.141 66.3792 337.327 66.9599 337.327 67.773C337.327 68.0343 337.265 68.4118 337.141 68.9345C337.017 69.4571 336.77 70.2992 336.429 71.4897C336.212 72.2157 336.089 72.7964 335.996 73.261C335.934 73.7256 335.81 74.6838 335.624 76.1067H334.912C334.664 74.3064 334.51 73.2029 334.448 72.7674C334.355 72.3318 334.2 71.7511 333.952 70.9961C333.643 70.0088 333.457 69.37 333.364 69.0506C333.24 68.557 333.147 68.1505 333.147 67.8601C333.147 66.989 333.364 66.3792 333.766 66.0307M333.766 78.5168C334.169 78.1393 334.664 77.936 335.253 77.936C335.841 77.936 336.336 78.1393 336.739 78.5168C337.141 78.8943 337.358 79.3588 337.358 79.9106C337.358 80.4623 337.141 80.9269 336.739 81.3043C336.336 81.6818 335.841 81.8851 335.253 81.8851C334.664 81.8851 334.169 81.6818 333.766 81.3043C333.364 80.9269 333.147 80.4623 333.147 79.9106C333.147 79.3588 333.364 78.8943 333.766 78.5168Z" fill="white"/>
<path d="M342.002 66.0598C342.405 65.7113 342.9 65.5081 343.457 65.5081C344.015 65.5081 344.479 65.6823 344.913 66.0307C345.346 66.3792 345.532 66.9599 345.532 67.773C345.532 68.0343 345.47 68.4118 345.346 68.9345C345.222 69.4571 344.975 70.2992 344.634 71.4897C344.417 72.2157 344.293 72.7964 344.201 73.261C344.139 73.7256 344.015 74.6838 343.829 76.1067H343.117C342.869 74.3064 342.714 73.2029 342.652 72.7674C342.56 72.3318 342.405 71.7511 342.188 70.9961C341.878 70.0088 341.693 69.37 341.6 69.0506C341.476 68.557 341.383 68.1505 341.383 67.8601C341.383 66.989 341.6 66.3792 342.002 66.0307M342.002 78.5168C342.405 78.1393 342.9 77.936 343.488 77.936C344.077 77.936 344.572 78.1393 344.975 78.5168C345.377 78.8943 345.594 79.3588 345.594 79.9106C345.594 80.4623 345.408 80.9269 344.975 81.3043C344.572 81.6818 344.077 81.8851 343.488 81.8851C342.9 81.8851 342.405 81.6818 342.002 81.3043C341.6 80.9269 341.383 80.4623 341.383 79.9106C341.383 79.3588 341.6 78.8943 342.002 78.5168Z" fill="white"/>
<path d="M426.931 38.0098C427.395 38.0098 427.798 38.0098 428.2 37.9808C428.603 37.9808 428.943 37.8646 429.253 37.7485C429.563 37.6323 429.81 37.4291 429.996 37.1677C430.182 36.9064 430.275 36.5289 430.275 36.0643C430.275 35.6578 430.182 35.3384 430.027 35.1061C429.872 34.8738 429.656 34.6996 429.377 34.5544C429.098 34.4382 428.82 34.3511 428.479 34.293C428.138 34.235 427.798 34.235 427.457 34.235H424.826V38.0389H426.9L426.931 38.0098ZM427.798 32.696C429.315 32.696 430.43 32.9864 431.173 33.5381C431.916 34.1188 432.256 34.9609 432.256 36.1224C432.256 37.1968 431.947 37.9808 431.297 38.5034C430.646 38.9971 429.841 39.3165 428.913 39.4036L432.566 44.6884H430.43L426.962 39.5198H424.857V44.6884H422.875V32.696H427.798ZM418.788 42.1622C419.252 43.2365 419.872 44.1657 420.677 44.9497C421.482 45.7337 422.441 46.3435 423.525 46.8081C424.609 47.2437 425.816 47.476 427.086 47.476C428.355 47.476 429.532 47.2437 430.615 46.8081C431.699 46.3435 432.659 45.7337 433.464 44.9497C434.269 44.1657 434.919 43.2365 435.353 42.1622C435.817 41.0878 436.034 39.9263 436.034 38.6777C436.034 37.4291 435.817 36.2966 435.353 35.2513C434.888 34.2059 434.269 33.2767 433.464 32.4927C432.659 31.7087 431.699 31.0989 430.615 30.6634C429.532 30.2278 428.355 29.9955 427.086 29.9955C425.816 29.9955 424.609 30.2278 423.525 30.6634C422.441 31.0989 421.482 31.7087 420.677 32.4927C419.872 33.2767 419.252 34.2059 418.788 35.2513C418.324 36.2966 418.107 37.4581 418.107 38.6777C418.107 39.8972 418.324 41.1168 418.788 42.1622ZM416.992 34.6415C417.58 33.3929 418.355 32.3185 419.376 31.3893C420.398 30.4892 421.544 29.7632 422.875 29.2405C424.206 28.7179 425.631 28.4565 427.117 28.4565C428.603 28.4565 430.027 28.7179 431.359 29.2405C432.69 29.7632 433.835 30.4892 434.826 31.3893C435.817 32.3185 436.622 33.3929 437.179 34.6415C437.768 35.8901 438.046 37.2258 438.046 38.6777C438.046 40.1295 437.768 41.5233 437.179 42.7719C436.591 44.0205 435.817 45.124 434.826 46.0241C433.835 46.9533 432.659 47.6792 431.359 48.1729C430.027 48.6955 428.634 48.9278 427.117 48.9278C425.6 48.9278 424.206 48.6665 422.875 48.1729C421.544 47.6502 420.367 46.9533 419.376 46.0241C418.385 45.0949 417.58 44.0205 416.992 42.7719C416.404 41.5233 416.125 40.1586 416.125 38.6777C416.125 37.1968 416.404 35.8901 416.992 34.6415Z" fill="#FFED00"/>
</svg>
